simulation
nRows=43
nColumns=15
endheader
time  TH_x TH_y TH_z SC_y  SC_z  SC_x  AC_y  AC_z  AC_x  GH_y  GH_z  GH_yy  EL_x  PS_y
0.000000  0.000000  0.000000  0.000000  -5.783610  -2.240990  8.436141  48.585097  3.182395  -22.717690  56.495356  13.538729  -28.039105  22.618201  97.023495
0.028182  0.000000  0.000000  0.000000  -5.822016  -2.356294  8.353540  48.580323  3.222836  -22.754660  56.323863  13.711231  -27.903123  22.520567  96.914910
0.056364  0.000000  0.000000  0.000000  -5.879191  -2.501031  8.258468  48.627782  3.276370  -22.779097  56.076130  13.953024  -27.716917  22.444799  96.834855
0.084545  0.000000  0.000000  0.000000  -5.950206  -2.664524  8.155458  48.725458  3.340396  -22.789740  55.768253  14.268291  -27.507700  22.385922  96.777742
0.112727  0.000000  0.000000  0.000000  -6.030134  -2.836094  8.048917  48.871337  3.412440  -22.785297  55.416326  14.661213  -27.302686  22.338963  96.737980
0.140909  0.000000  0.000000  0.000000  -6.114048  -3.005066  7.943284  49.063415  3.490022  -22.764519  55.036446  15.135973  -27.129090  22.298946  96.709981
0.169091  0.000000  0.000000  0.000000  -6.197019  -3.160759  7.842701  49.299687  3.570886  -22.725967  54.644708  15.696753  -27.014123  22.260897  96.688154
0.197273  0.000000  0.000000  0.000000  -6.274121  -3.292497  7.751279  49.578156  3.652778  -22.668171  54.257208  16.347734  -26.985002  22.219841  96.666911
0.225455  0.000000  0.000000  0.000000  -6.340425  -3.389603  7.673050  49.896832  3.733476  -22.589578  53.890041  17.093098  -27.068938  22.170804  96.640662
0.253636  0.000000  0.000000  0.000000  -6.391004  -3.441397  7.611773  50.253720  3.810917  -22.488422  53.559302  17.937027  -27.293146  22.108811  96.603817
0.281818  0.000000  0.000000  0.000000  -6.420930  -3.437203  7.571155  50.646830  3.883037  -22.362845  53.281088  18.883704  -27.684840  22.028887  96.550787
0.310000  0.000000  0.000000  0.000000  -6.425853  -3.366873  7.555033  51.074047  3.947670  -22.210973  53.070169  19.937313  -28.268840  21.926132  96.476414
0.338182  0.000000  0.000000  0.000000  -6.410828  -3.228905  7.568684  51.531179  4.002461  -22.031116  52.919732  21.102096  -29.030996  21.796826  96.382567
0.366364  0.000000  0.000000  0.000000  -6.388559  -3.028831  7.619343  52.012370  4.044241  -21.822162  52.805402  22.382337  -29.925453  21.638215  96.276836
0.394545  0.000000  0.000000  0.000000  -6.371974  -2.772386  7.714092  52.511697  4.069858  -21.582711  52.702299  23.782324  -30.905436  21.447573  96.166973
0.422727  0.000000  0.000000  0.000000  -6.374001  -2.465306  7.860068  53.023219  4.076000  -21.311224  52.585538  25.306345  -31.924167  21.222174  96.060733
0.450909  0.000000  0.000000  0.000000  -6.407397  -2.113353  8.064610  53.541006  4.059126  -21.006195  52.430482  26.958466  -32.935234  20.959412  95.965762
0.479091  0.000000  0.000000  0.000000  -6.476844  -1.723598  8.333311  54.060232  4.019017  -20.668869  52.224027  28.732431  -33.909308  20.662380  95.884633
0.507273  0.000000  0.000000  0.000000  -6.575622  -1.304953  8.669447  54.577659  3.960110  -20.304605  51.969353  30.607397  -34.841184  20.342222  95.812758
0.535455  0.000000  0.000000  0.000000  -6.696151  -0.866473  9.076519  55.090198  3.886869  -19.919271  51.670873  32.561422  -35.727481  20.010686  95.745007
0.563636  0.000000  0.000000  0.000000  -6.830852  -0.417209  9.558256  55.594797  3.803567  -19.518829  51.332999  34.572565  -36.564816  19.679524  95.676249
0.591818  0.000000  0.000000  0.000000  -6.972165  0.033790  10.118635  56.088468  3.714285  -19.109365  50.960152  36.618885  -37.349825  19.360478  95.601359
0.620000  0.000000  0.000000  0.000000  -7.120230  0.479493  10.760894  56.571360  3.625296  -18.697723  50.560465  38.678871  -38.085971  19.062255  95.516841
0.648182  0.000000  0.000000  0.000000  -7.294545  0.917944  11.485433  57.051409  3.549183  -18.292115  50.151407  40.732092  -38.793876  18.785930  95.423296
0.676364  0.000000  0.000000  0.000000  -7.517600  1.347968  12.292059  57.537914  3.499619  -17.900860  49.751886  42.758287  -39.496816  18.531401  95.321958
0.704545  0.000000  0.000000  0.000000  -7.811886  1.768391  13.180828  58.040376  3.490025  -17.532335  49.380811  44.737193  -40.218067  18.298565  95.214062
0.732727  0.000000  0.000000  0.000000  -8.199893  2.178040  14.150426  58.568462  3.534930  -17.194080  49.057092  46.648546  -40.980903  18.087319  95.100842
0.760909  0.000000  0.000000  0.000000  -8.696687  2.577261  15.202054  59.127596  3.641779  -16.891190  48.794925  48.472330  -41.803851  17.899786  94.986465
0.789091  0.000000  0.000000  0.000000  -9.282552  2.973529  16.341479  59.702589  3.791243  -16.614050  48.586430  50.189684  -42.683169  17.748525  94.888835
0.817273  0.000000  0.000000  0.000000  -9.927591  3.376403  17.577288  60.272058  3.954965  -16.349611  48.417263  51.782082  -43.608605  17.649146  94.829874
0.845455  0.000000  0.000000  0.000000  -10.601907  3.795443  18.916613  60.814440  4.105991  -16.084331  48.273081  53.230998  -44.569904  17.617262  94.831507
0.873636  0.000000  0.000000  0.000000  -11.275603  4.240208  20.366836  61.308018  4.217403  -15.805261  48.139540  54.517909  -45.556812  17.668484  94.915658
0.901818  0.000000  0.000000  0.000000  -11.921213  4.719007  21.933842  61.733144  4.264276  -15.500325  48.001697  55.626403  -46.557849  17.816961  95.102037
0.930000  0.000000  0.000000  0.000000  -12.533413  5.228770  23.609066  62.090572  4.237553  -15.158997  47.839141  56.559296  -47.550399  18.063540  95.390225
0.958182  0.000000  0.000000  0.000000  -13.118689  5.760349  25.377588  62.391805  4.135362  -14.772048  47.628544  57.329667  -48.505898  18.401967  95.769053
0.986364  0.000000  0.000000  0.000000  -13.683642  6.304542  27.221747  62.648010  3.958246  -14.328932  47.346552  57.950693  -49.395728  18.825920  96.227255
1.014545  0.000000  0.000000  0.000000  -14.234873  6.852146  29.129217  62.870158  3.701895  -13.821309  46.969810  58.435548  -50.191271  19.329080  96.753564
1.042727  0.000000  0.000000  0.000000  -14.778606  7.394000  31.084142  63.068420  3.365341  -13.239863  46.476302  58.797485  -50.865313  19.904685  97.336138
1.070909  0.000000  0.000000  0.000000  -15.313463  7.921815  33.069500  63.246547  2.956518  -12.596259  45.871306  59.051302  -51.419281  20.537009  97.951462
1.099091  0.000000  0.000000  0.000000  -15.830960  8.428112  35.061695  63.402629  2.496754  -11.919709  45.185588  59.213244  -51.881344  21.201953  98.565120
1.127273  0.000000  0.000000  0.000000  -16.322342  8.905445  37.037400  63.535018  2.007537  -11.240620  44.450886  59.299610  -52.280693  21.875098  99.142276
1.155455  0.000000  0.000000  0.000000  -16.778856  9.346365  38.972721  63.642572  1.510941  -10.589378  43.698941  59.326699  -52.646522  22.532027  99.648097
1.183636  0.000000  0.000000  0.000000  -17.191837  9.743463  40.831222  63.724649  1.040293  -9.990729  42.961363  59.310666  -53.007777  23.148455  100.047956
